# xmcd
#
# Track frame offsets:
#	150
#	14215
#	35202
#	45450
#	59827
#	77835
#	87430
#	105110
#	120850
#	134752
#	156127
#	172447
#	187517
#	217157
# Disc length: 3173 seconds
# Revision: 5
# Processed by: cddbd v1.5.2PL0 Copyright (c) Steve Scherf et al.
#
# Submitted via: libkcddb 0.31
#
DISCID=c80c630e
DTITLE=Vince Gill - The Key
DYEAR=1998
DGENRE=Country
TTITLE0=Don't Come Cryin' To Me
TTITLE1=If You Ever Have Forever In Mind
TTITLE2=I Never Really Knew You
TTITLE3=Kindly Keep It Country
TTITLE4=All Those Years
TTITLE5=I'll Take Texas
TTITLE6=My Kind Of Woman/My Kind Of Man (a duet with Patty Loveless)
TTITLE7=There's Not Much Love Here Anymore
TTITLE8=Let Her In
TTITLE9=The Hills Of Caroline
TTITLE10=Live To Tell It All
TTITLE11=What They All Call Love
TTITLE12=The Key To Life
TTITLE13=data
EXTD=YEAR: 1998 ID3G:   2
EXTT0=
EXTT1=
EXTT2=
EXTT3=
EXTT4=
EXTT5=
EXTT6=
EXTT7=
EXTT8=
EXTT9=
EXTT10=
EXTT11=
EXTT12=
EXTT13=
PLAYORDER=
